<svg width="20" height="20" viewBox="0 0 20 20" fill="none" xmlns="http://www.w3.org/2000/svg">
<path d="M4 18.0003H1C0.734784 18.0003 0.48043 18.1057 0.292893 18.2932C0.105357 18.4808 0 18.7351 0 19.0003C0 19.2656 0.105357 19.5199 0.292893 19.7074C0.48043 19.895 0.734784 20.0003 1 20.0003H14.5C15.2675 20.0004 16.0266 19.8398 16.7283 19.5289C17.43 19.2179 18.0589 18.7635 18.5745 18.1949C19.09 17.6264 19.4809 16.9561 19.7218 16.2274C19.9628 15.4987 20.0486 14.7276 19.9736 13.9637C19.8877 13.1755 19.6297 12.4157 19.218 11.7381C18.8063 11.0604 18.2508 10.4815 17.5908 10.042C18.411 9.49108 19.066 8.7275 19.4857 7.83299C19.9054 6.93848 20.0741 5.9467 19.9736 4.96374C19.8055 3.58398 19.1344 2.3147 18.0888 1.3989C17.0431 0.483103 15.6965 -0.014863 14.3066 0.000338025H1C0.734784 0.000338025 0.48043 0.105695 0.292893 0.293231C0.105357 0.480768 0 0.735122 0 1.00034C0 1.26555 0.105357 1.51991 0.292893 1.70744C0.48043 1.89498 0.734784 2.00034 1 2.00034H4V18.0003ZM6 2.00034H14.3066C15.1999 1.98182 16.0687 2.29311 16.747 2.87472C17.4252 3.45633 17.8654 4.26747 17.9834 5.15314C18.0316 5.63962 17.9773 6.1308 17.8242 6.59506C17.6711 7.05932 17.4225 7.48639 17.0944 7.84878C16.7663 8.21116 16.3659 8.50084 15.9191 8.69917C15.4723 8.8975 10.2701 5.70678 9.78125 5.70703L6 9.00034V2.00034ZM6 11.0003L13.7812 13.707C14.6745 13.6885 16.0687 11.2931 16.747 11.8747C17.4252 12.4563 17.8654 13.2675 17.9834 14.1531C18.0316 14.6396 17.9773 15.1308 17.8242 15.5951C17.6711 16.0593 17.4225 16.4864 17.0944 16.8488C16.7663 17.2112 16.3659 17.5008 15.9191 17.6992C15.4723 17.8975 14.9889 18.0001 14.5 18.0003H6V11.0003Z" fill="black"/>
</svg>
